<svg width="60" height="71" viewBox="0 0 60 71" fill="none" xmlns="http://www.w3.org/2000/svg">
<path d="M58.0838 24.2063C57.6563 24.5259 50.1093 28.623 50.1093 37.7332C50.1093 48.2706 59.7126 51.9985 60 52.0908C59.9558 52.318 58.4744 57.1962 54.9367 62.1667C51.7823 66.5407 48.4879 70.9077 43.4762 70.9077C38.4646 70.9077 37.1748 68.1029 31.3893 68.1029C25.7511 68.1029 23.7465 71 19.1623 71C14.5781 71 11.3794 66.9526 7.70176 61.9821C3.44184 56.1453 0 47.0777 0 38.4716C0 24.6679 9.31581 17.347 18.4842 17.347C23.3559 17.347 27.4168 20.4287 30.4754 20.4287C33.3866 20.4287 37.9265 17.1624 43.4689 17.1624C45.5693 17.1624 53.1163 17.347 58.0838 24.2063ZM40.8377 11.3185C43.1298 8.69837 44.7513 5.06281 44.7513 1.42724C44.7513 0.923092 44.707 0.411841 44.6112 0C40.882 0.134913 36.4452 2.39294 33.7698 5.38234C31.6693 7.68297 29.7089 11.3185 29.7089 15.0038C29.7089 15.5577 29.8047 16.1115 29.8489 16.289C30.0848 16.3316 30.468 16.3813 30.8512 16.3813C34.1973 16.3813 38.4056 14.2227 40.8377 11.3185Z" fill="#00C5FF"/>
</svg>
