<svg width="75" height="75" viewBox="0 0 75 75" fill="none" xmlns="http://www.w3.org/2000/svg">
<path fill-rule="evenodd" clip-rule="evenodd" d="M37.5 75C58.2107 75 75 58.2107 75 37.5C75 16.7893 58.2107 0 37.5 0C16.7893 0 0 16.7893 0 37.5C0 58.2107 16.7893 75 37.5 75ZM8.71393 18.772L23.3192 43.1019C24.1628 44.7079 25.2629 46.1832 26.5399 47.4601C29.552 50.4723 33.6674 52.5 38 52.5C40.2595 52.5 42.4886 51.9268 44.5176 50.9626L34.2025 68.7474L36.7975 70.2526L51.2668 45.3056C52.9388 42.89 54.5 39.3619 54.5 36C54.5 31.6674 52.4723 27.552 49.4601 24.5399C48.7146 23.7943 47.9015 23.1091 47.0342 22.5H68.5V19.5H38C33.6674 19.5 29.552 21.5277 26.5399 24.5399C23.9022 27.1775 22.0194 30.6612 21.592 34.3959L11.2861 17.228L8.71393 18.772ZM28.6612 45.3388C27.9973 44.6749 27.3974 43.955 26.8731 43.1933L25.9351 41.6307C25.0186 39.8582 24.5 37.9315 24.5 36C24.5 32.6006 26.1063 29.2161 28.6612 26.6612C31.2161 24.1063 34.6006 22.5 38 22.5C41.3994 22.5 44.7839 24.1063 47.3388 26.6612C49.8937 29.2161 51.5 32.6006 51.5 36C51.5 38.5626 50.2475 41.5233 48.7697 43.6418C46.4802 46.9242 42.2009 49.5 38 49.5C34.6006 49.5 31.2161 47.8937 28.6612 45.3388Z" fill="#00C5FF"/>
</svg>
