<svg width="66" height="44" viewBox="0 0 66 44" fill="none" xmlns="http://www.w3.org/2000/svg">
<path fill-rule="evenodd" clip-rule="evenodd" d="M16 11.506C7.5 11.506 1 19 1 27.5C1 36 7 43 15.5 43L52 43C52 43 65 43 65 30C65 17 52 17 52 17C52 17 50.5 1 34 1C17.5 1 16 11.506 16 11.506ZM28 14.5V25H20L33 38L46 25H38V14.5H28Z" fill="#00C5FF"/>
<path d="M16 11.506V12.006H16.4337L16.495 11.5767L16 11.506ZM15.5 43V42.5V43ZM52 43V42.5V43ZM52 17L51.5022 17.0467L51.5447 17.5H52V17ZM28 25V25.5H28.5V25H28ZM28 14.5V14H27.5V14.5H28ZM20 25V24.5H18.7929L19.6464 25.3536L20 25ZM33 38L32.6464 38.3536L33 38.7071L33.3536 38.3536L33 38ZM46 25L46.3536 25.3536L47.2071 24.5H46V25ZM38 25H37.5V25.5H38V25ZM38 14.5H38.5V14H38V14.5ZM1.5 27.5C1.5 19.2336 7.81685 12.006 16 12.006V11.006C7.18315 11.006 0.5 18.7664 0.5 27.5H1.5ZM15.5 42.5C7.31893 42.5 1.5 35.7687 1.5 27.5H0.5C0.5 36.2313 6.68107 43.5 15.5 43.5V42.5ZM52 42.5L15.5 42.5V43.5L52 43.5V42.5ZM64.5 30C64.5 33.1625 63.7108 35.5011 62.5527 37.2383C61.3926 38.9785 59.8421 40.1449 58.2764 40.9278C56.7088 41.7116 55.1351 42.106 53.9491 42.3037C53.3572 42.4023 52.8651 42.4514 52.523 42.4759C52.352 42.4881 52.2187 42.4941 52.1293 42.4971C52.0847 42.4986 52.0511 42.4993 52.0292 42.4997C52.0183 42.4998 52.0104 42.4999 52.0055 42.5C52.003 42.5 52.0013 42.5 52.0004 42.5C51.9999 42.5 51.9997 42.5 51.9996 42.5C51.9996 42.5 51.9997 42.5 51.9997 42.5C51.9998 42.5 52 42.5 52 43C52 43.5 52.0003 43.5 52.0006 43.5C52.0008 43.5 52.0012 43.5 52.0016 43.5C52.0023 43.5 52.0032 43.5 52.0043 43.5C52.0066 43.5 52.0096 43.5 52.0134 43.4999C52.021 43.4999 52.0317 43.4998 52.0454 43.4995C52.0727 43.4991 52.1121 43.4982 52.1627 43.4965C52.2638 43.4932 52.4098 43.4865 52.5942 43.4733C52.963 43.447 53.4865 43.3946 54.1134 43.2901C55.3649 43.0815 57.0412 42.6634 58.7236 41.8222C60.4079 40.9801 62.1074 39.709 63.3848 37.793C64.6642 35.8739 65.5 33.3375 65.5 30H64.5ZM52 17C52 17.5 51.9998 17.5 51.9997 17.5C51.9997 17.5 51.9996 17.5 51.9996 17.5C51.9997 17.5 51.9999 17.5 52.0004 17.5C52.0013 17.5 52.003 17.5 52.0055 17.5C52.0104 17.5001 52.0183 17.5002 52.0292 17.5003C52.0511 17.5007 52.0847 17.5014 52.1293 17.5029C52.2187 17.5059 52.352 17.5119 52.523 17.5241C52.8651 17.5486 53.3572 17.5977 53.9491 17.6963C55.1351 17.894 56.7088 18.2884 58.2764 19.0722C59.8421 19.8551 61.3926 21.0215 62.5527 22.7617C63.7108 24.4989 64.5 26.8375 64.5 30H65.5C65.5 26.6625 64.6642 24.1261 63.3848 22.207C62.1074 20.291 60.4079 19.0199 58.7236 18.1778C57.0412 17.3366 55.3649 16.9185 54.1134 16.7099C53.4865 16.6054 52.963 16.553 52.5942 16.5267C52.4098 16.5135 52.2638 16.5068 52.1627 16.5034C52.1121 16.5018 52.0727 16.5009 52.0454 16.5005C52.0317 16.5002 52.021 16.5001 52.0134 16.5001C52.0096 16.5 52.0066 16.5 52.0043 16.5C52.0032 16.5 52.0023 16.5 52.0016 16.5C52.0012 16.5 52.0008 16.5 52.0006 16.5C52.0003 16.5 52 16.5 52 17ZM34 1.5C42.0492 1.5 46.3992 5.38512 48.7605 9.26018C49.9477 11.2083 50.6347 13.1607 51.0246 14.6284C51.2193 15.3613 51.3392 15.9708 51.4102 16.3951C51.4457 16.6071 51.4689 16.7726 51.4832 16.8839C51.4903 16.9395 51.4952 16.9815 51.4982 17.009C51.4997 17.0227 51.5008 17.0328 51.5014 17.0391C51.5018 17.0423 51.502 17.0445 51.5021 17.0458C51.5022 17.0464 51.5022 17.0468 51.5022 17.0469C51.5022 17.047 51.5022 17.0469 51.5022 17.047C51.5022 17.0469 51.5022 17.0467 52 17C52.4978 16.9533 52.4978 16.953 52.4978 16.9526C52.4977 16.9524 52.4977 16.952 52.4977 16.9516C52.4976 16.9508 52.4975 16.9497 52.4973 16.9484C52.4971 16.9458 52.4967 16.9422 52.4963 16.9377C52.4953 16.9286 52.494 16.9158 52.4922 16.8992C52.4885 16.8662 52.483 16.8183 52.4751 16.7568C52.4593 16.6336 52.4342 16.4554 52.3965 16.2299C52.321 15.7792 52.1948 15.1387 51.9911 14.3716C51.584 12.8393 50.8648 10.7917 49.6145 8.73981C47.1008 4.61488 42.4508 0.5 34 0.5V1.5ZM16 11.506C16.495 11.5767 16.4949 11.577 16.4949 11.5773C16.4949 11.5773 16.4948 11.5776 16.4948 11.5777C16.4948 11.5778 16.4948 11.5779 16.4948 11.5777C16.4949 11.5775 16.495 11.5766 16.4952 11.5751C16.4957 11.5721 16.4966 11.5666 16.4979 11.5587C16.5005 11.543 16.505 11.5178 16.5116 11.4838C16.5249 11.4156 16.547 11.312 16.5812 11.1781C16.6495 10.9101 16.7658 10.5213 16.9557 10.0519C17.3355 9.11309 18.0085 7.85437 19.179 6.59311C21.5073 4.08433 25.866 1.5 34 1.5V0.5C25.634 0.5 20.9927 3.16866 18.446 5.91287C17.179 7.27811 16.4458 8.64589 16.0287 9.67692C15.8201 10.1924 15.6903 10.6244 15.6122 10.931C15.5731 11.0844 15.5469 11.2065 15.5301 11.2922C15.5218 11.3351 15.5158 11.3689 15.5117 11.393C15.5097 11.405 15.5082 11.4146 15.5071 11.4217C15.5065 11.4252 15.5061 11.4281 15.5057 11.4304C15.5056 11.4315 15.5054 11.4325 15.5053 11.4333C15.5052 11.4337 15.5052 11.4342 15.5051 11.4344C15.5051 11.4349 15.505 11.4353 16 11.506ZM28.5 25V14.5H27.5V25H28.5ZM20 25.5H28V24.5H20V25.5ZM33.3536 37.6464L20.3536 24.6464L19.6464 25.3536L32.6464 38.3536L33.3536 37.6464ZM45.6464 24.6464L32.6464 37.6464L33.3536 38.3536L46.3536 25.3536L45.6464 24.6464ZM38 25.5H46V24.5H38V25.5ZM37.5 14.5V25H38.5V14.5H37.5ZM28 15H38V14H28V15Z" fill="#00C5FF"/>
</svg>
