<svg width="483" height="38" viewBox="0 0 483 38" fill="none" xmlns="http://www.w3.org/2000/svg">
<path d="M387.6 14.6V23H391.236C391.548 23 391.788 22.76 391.788 22.448V15.164C391.788 14.852 391.548 14.6 391.236 14.6H387.6ZM390.396 21.608H388.992V16.004H390.396V21.608ZM397.202 16.004V14.6H393.554C393.242 14.6 393.002 14.852 393.002 15.164V22.448C393.002 22.76 393.242 23 393.554 23H397.19V21.608H394.394V19.508H397.19V18.104H394.394V16.004H397.202ZM402.593 16.004V14.6H398.957C398.645 14.6 398.405 14.852 398.405 15.164V18.944C398.405 19.244 398.645 19.496 398.957 19.496H401.201V21.608H398.405V23H402.041C402.353 23 402.593 22.76 402.593 22.448V18.656C402.593 18.356 402.353 18.104 402.041 18.104H399.797V16.004H402.593ZM405.199 23V14.6H403.807V23H405.199ZM410.597 16.208V15.164C410.597 14.852 410.357 14.6 410.045 14.6H406.409V23H410.045C410.357 23 410.597 22.76 410.597 22.448V18.908H408.497V20.312C408.737 20.3 408.977 20.264 409.205 20.216V21.608H407.801V16.004H409.205V17.432C409.805 17.216 410.309 16.772 410.597 16.208ZM414.607 14.6V18.812L413.335 14.984C413.251 14.756 413.047 14.6 412.807 14.6H411.811V23H413.203V18.8L414.475 22.628C414.559 22.856 414.763 23 415.003 23H415.999V14.6H414.607ZM423.758 14.624C423.722 14.612 423.674 14.6 423.638 14.6H420.554C420.242 14.6 420.002 14.852 420.002 15.164V23H424.19V20.888L423.566 19.7C423.818 19.412 424.034 19.1 424.19 18.764V15.164C424.19 14.9 424.01 14.684 423.758 14.624ZM421.394 16.004H422.798V18.404C422.474 18.92 421.982 19.316 421.394 19.508V16.004ZM422.798 21.608H421.394V20.96C421.826 20.876 422.222 20.708 422.594 20.504L422.798 20.888V21.608ZM429.005 14.6L427.601 17.408L426.197 14.6H424.805L426.905 18.8V23H428.297V18.8L430.397 14.6H429.005ZM433.795 14.6V23H437.431C437.743 23 437.983 22.76 437.983 22.448V15.164C437.983 14.852 437.743 14.6 437.431 14.6H433.795ZM436.591 21.608H435.187V16.004H436.591V21.608ZM443.398 16.004V14.6H439.75C439.438 14.6 439.198 14.852 439.198 15.164V22.448C439.198 22.76 439.438 23 439.75 23H443.386V21.608H440.59V19.508H443.386V18.104H440.59V16.004H443.398ZM448.788 16.004V14.6H445.152C444.84 14.6 444.6 14.852 444.6 15.164V18.944C444.6 19.244 444.84 19.496 445.152 19.496H447.396V21.608H444.6V23H448.236C448.548 23 448.788 22.76 448.788 22.448V18.656C448.788 18.356 448.548 18.104 448.236 18.104H445.992V16.004H448.788ZM453.758 14.624C453.722 14.612 453.674 14.6 453.638 14.6H450.554C450.242 14.6 450.002 14.852 450.002 15.164V23H451.394V20.96C451.91 20.852 452.378 20.648 452.798 20.372V23H454.202V15.164C454.202 14.9 454.01 14.684 453.758 14.624ZM451.394 19.508V16.004H452.798V18.404C452.474 18.92 451.982 19.316 451.394 19.508ZM459.161 14.624C459.125 14.612 459.077 14.6 459.041 14.6H455.405V23.012H456.797V20.96C457.229 20.876 457.625 20.708 457.997 20.504L458.201 20.888V23.012H459.605V20.888L458.969 19.7C459.221 19.412 459.437 19.1 459.605 18.764V15.164C459.593 14.9 459.413 14.684 459.161 14.624ZM456.797 16.004H458.201V18.404C457.877 18.92 457.385 19.316 456.797 19.508V16.004ZM466.399 14.6H460.807V16.004H462.907V23H464.299V16.004H466.399V14.6Z" fill="#838383"/>
<path d="M482.884 21.647L482.892 19.1793L482.904 15.3021C482.905 14.92 482.674 14.5434 482.308 14.3308L482.03 14.169C481.663 13.9564 481.223 13.9432 480.895 14.1359L477.395 16.1808L475.438 17.3249C475.164 17.4846 475.003 17.7665 475.002 18.0836L475 18.6738C474.999 19.056 475.23 19.4325 475.596 19.6451L477.462 20.7286L477.598 20.7209L478.482 20.6659L478.876 21.462L478.936 21.5842L480.803 22.6678C481.17 22.8803 481.609 22.8935 481.938 22.7019L482.446 22.4046C482.721 22.246 482.883 21.9641 482.884 21.647Z" fill="#838383"/>
<path d="M77.1415 26.6216L79.6375 22.8776L82.1095 26.6216C82.3255 26.9336 82.6615 27.1016 83.0455 27.1016H85.2535V10.3016H82.4455V22.9016L81.0295 20.7656L80.5495 20.0696C80.1175 19.3976 79.1335 19.3976 78.7015 20.0696L78.2215 20.7656L76.8055 22.9016V10.3016H74.0215V27.1016H76.2055C76.5895 27.1016 76.9255 26.9336 77.1415 26.6216ZM95.1742 10.3496C95.1022 10.3256 95.0062 10.3016 94.9342 10.3016H88.7662C88.1422 10.3016 87.6622 10.8056 87.6622 11.4296V27.1016H90.4462V23.0216C91.4782 22.8056 92.4142 22.3976 93.2542 21.8456V27.1016H96.0622V11.4296C96.0622 10.9016 95.6782 10.4696 95.1742 10.3496ZM90.4462 20.1176V13.1096H93.2542V17.9096C92.6062 18.9416 91.6222 19.7336 90.4462 20.1176ZM105.979 10.3496C105.907 10.3256 105.811 10.3016 105.739 10.3016H98.4668V27.1256H101.251V23.0216C102.115 22.8536 102.907 22.5176 103.651 22.1096L104.059 22.8776V27.1256H106.867V22.8776L105.595 20.5016C106.099 19.9256 106.531 19.3016 106.867 18.6296V11.4296C106.843 10.9016 106.483 10.4696 105.979 10.3496ZM101.251 13.1096H104.059V17.9096C103.411 18.9416 102.427 19.7336 101.251 20.1176V13.1096ZM116.784 10.3496C116.712 10.3256 116.616 10.3016 116.544 10.3016H110.376C109.752 10.3016 109.272 10.8056 109.272 11.4296V27.1016H112.056V23.0216C113.088 22.8056 114.024 22.3976 114.864 21.8456C116.064 21.0536 117.024 19.9256 117.648 18.6296V11.4296C117.648 10.9016 117.288 10.4696 116.784 10.3496ZM112.056 20.1176V13.1096H114.864V17.9096C114.216 18.9416 113.232 19.7336 112.056 20.1176ZM122.86 10.3016H120.076V25.9976C120.076 26.6216 120.556 27.1016 121.18 27.1016H128.452V24.3176H122.86V10.3016ZM138.393 10.3496C138.321 10.3256 138.225 10.3016 138.153 10.3016H131.985C131.361 10.3016 130.881 10.8056 130.881 11.4296V27.1016H133.665V23.0216C134.697 22.8056 135.633 22.3976 136.473 21.8456V27.1016H139.281V11.4296C139.281 10.9016 138.897 10.4696 138.393 10.3496ZM133.665 20.1176V13.1096H136.473V17.9096C135.825 18.9416 134.841 19.7336 133.665 20.1176ZM148.886 10.3016L146.078 15.9176L143.27 10.3016H140.486L144.686 18.7016V27.1016H147.47V18.7016L151.67 10.3016H148.886ZM152.889 24.3176V27.1016H154.569C155.169 27.1016 155.673 26.6216 155.673 25.9976V24.3176H152.889ZM163.684 24.3176H160.876V13.1096H163.684V15.9656C164.884 15.5336 165.892 14.6456 166.468 13.5176V11.4296C166.468 10.8056 165.988 10.3016 165.364 10.3016H158.092V27.1016H165.364C165.988 27.1016 166.468 26.6216 166.468 25.9976V18.8936H163.684V24.3176ZM171.681 10.3016H168.897V25.9976C168.897 26.6216 169.377 27.1016 170.001 27.1016H177.273V24.3176H171.681V10.3016ZM179.701 11.4296V25.9976C179.701 26.6216 180.181 27.1016 180.805 27.1016H186.973C187.597 27.1016 188.077 26.6216 188.077 25.9976V11.4296C188.077 10.8056 187.597 10.3016 186.973 10.3016H180.805C180.181 10.3016 179.701 10.8056 179.701 11.4296ZM185.293 24.3176H182.485V13.1096H185.293V24.3176ZM196.098 10.3016V24.3176H193.29V10.3016H190.506V25.9976C190.506 26.6216 190.986 27.1016 191.61 27.1016H197.778C198.402 27.1016 198.882 26.6216 198.882 25.9976V10.3016H196.098ZM201.311 10.3016V27.1016H208.583C209.207 27.1016 209.687 26.6216 209.687 25.9976V11.4296C209.687 10.8056 209.207 10.3016 208.583 10.3016H201.311ZM206.903 24.3176H204.095V13.1096H206.903V24.3176Z" fill="#ECECEC"/>
<path d="M27.9148 21.8691H19.9117C19.8239 21.8691 19.744 21.9213 19.712 21.9959L12.1882 37.0487C12.1323 37.1829 12.2361 37.3246 12.3879 37.3171H35.4226C35.5744 37.3171 35.6702 37.168 35.6223 37.0412L28.0985 21.9884C28.0745 21.9213 27.9947 21.8691 27.9148 21.8691Z" fill="#ECECEC"/>
<path d="M12.2921 33.0299L18.8176 20.0726C18.8336 20.0353 18.8416 19.9906 18.8256 19.9458L9.38481 1.04663C9.32092 0.822966 8.96948 0.852788 8.96948 1.09136L11.8928 32.9553C11.8768 33.1641 12.2043 33.2312 12.2921 33.0299Z" fill="#ECECEC"/>
<path d="M0.591141 12.5951L6.74919 0.0851929C6.87699 -0.078822 7.14056 0.0106405 7.13257 0.211931L10.3753 34.834C10.3673 35.0427 10.0559 35.1024 9.96799 34.9085L0.231722 15.3908C-0.17562 14.4663 -0.0398394 13.4077 0.591141 12.5951Z" fill="#E0E0E0"/>
<path d="M35.9339 32.9553L38.8572 1.09126C38.8572 0.860145 38.5058 0.822868 38.4419 1.04653L29.0011 19.9458C28.9852 19.9905 28.9932 20.0352 29.0091 20.0725L35.5346 33.0299C35.6224 33.2312 35.9499 33.1641 35.9339 32.9553Z" fill="#ECECEC"/>
<path d="M47.5872 15.3903L37.8509 34.9085C37.7631 35.1098 37.4516 35.0501 37.4436 34.8339L40.6864 0.21108C40.6784 0.00978427 40.942 -0.0722248 41.0697 0.0843384L47.2358 12.5945C47.8668 13.4071 47.9946 14.4658 47.5872 15.3903Z" fill="#E0E0E0"/>
<path d="M244.396 16.004V18.104H242.152C241.84 18.104 241.6 18.356 241.6 18.656V22.448C241.6 22.76 241.84 23 242.152 23H245.788V21.608H242.992V19.496H245.236C245.548 19.496 245.788 19.244 245.788 18.944V15.164C245.788 14.852 245.548 14.6 245.236 14.6H241.6V16.004H244.396ZM247.002 15.164V22.448C247.002 22.76 247.242 23 247.554 23H250.638C250.95 23 251.19 22.76 251.19 22.448V15.164C251.19 14.852 250.95 14.6 250.638 14.6H247.554C247.242 14.6 247.002 14.852 247.002 15.164ZM249.798 21.608H248.394V16.004H249.798V21.608ZM255.201 16.004V18.104H252.957C252.645 18.104 252.405 18.356 252.405 18.656V22.448C252.405 22.76 252.645 23 252.957 23H256.593V21.608H253.797V19.496H256.041C256.353 19.496 256.593 19.244 256.593 18.944V15.164C256.593 14.852 256.353 14.6 256.041 14.6H252.405V16.004H255.201ZM260.603 16.004V18.104H258.359C258.047 18.104 257.807 18.356 257.807 18.656V22.448C257.807 22.76 258.047 23 258.359 23H261.995V21.608H259.199V19.496H261.443C261.755 19.496 261.995 19.244 261.995 18.944V15.164C261.995 14.852 261.755 14.6 261.443 14.6H257.807V16.004H260.603ZM263.209 21.608V23H264.049C264.349 23 264.601 22.76 264.601 22.448V21.608H263.209ZM272.356 14.624C272.32 14.612 272.272 14.6 272.236 14.6H269.152C268.84 14.6 268.6 14.852 268.6 15.164V23H269.992V20.96C270.508 20.852 270.976 20.648 271.396 20.372V23H272.8V15.164C272.8 14.9 272.608 14.684 272.356 14.624ZM269.992 19.508V16.004H271.396V18.404C271.072 18.92 270.58 19.316 269.992 19.508ZM275.394 14.6H274.002V22.448C274.002 22.76 274.242 23 274.554 23H278.19V21.608H275.394V14.6ZM280.797 14.6H279.405V22.448C279.405 22.76 279.645 23 279.957 23H283.593V21.608H280.797V14.6ZM291.352 14.624C291.316 14.612 291.268 14.6 291.232 14.6H287.596V23.012H288.988V20.96C289.42 20.876 289.816 20.708 290.188 20.504L290.392 20.888V23.012H291.796V20.888L291.16 19.7C291.412 19.412 291.628 19.1 291.796 18.764V15.164C291.784 14.9 291.604 14.684 291.352 14.624ZM288.988 16.004H290.392V18.404C290.068 18.92 289.576 19.316 288.988 19.508V16.004ZM294.39 23V14.6H292.998V23H294.39ZM299.788 16.208V15.164C299.788 14.852 299.548 14.6 299.236 14.6H295.6V23H299.236C299.548 23 299.788 22.76 299.788 22.448V18.908H297.688V20.312C297.928 20.3 298.168 20.264 298.396 20.216V21.608H296.992V16.004H298.396V17.432C298.996 17.216 299.5 16.772 299.788 16.208ZM303.798 14.6V18.404C303.474 18.92 302.982 19.316 302.394 19.508V14.6H301.002V23.012H302.394V20.96C302.91 20.852 303.378 20.648 303.798 20.372V23H305.19V14.6H303.798ZM311.997 14.6H306.405V16.004H308.505V23H309.897V16.004H311.997V14.6ZM317.401 16.004V14.6H313.765C313.453 14.6 313.213 14.852 313.213 15.164V18.944C313.213 19.244 313.453 19.496 313.765 19.496H316.009V21.608H313.213V23H316.849C317.161 23 317.401 22.76 317.401 22.448V18.656C317.401 18.356 317.161 18.104 316.849 18.104H314.605V16.004H317.401ZM325.161 14.624C325.125 14.612 325.077 14.6 325.041 14.6H321.405V23.012H322.797V20.96C323.229 20.876 323.625 20.708 323.997 20.504L324.201 20.888V23.012H325.605V20.888L324.969 19.7C325.221 19.412 325.437 19.1 325.605 18.764V15.164C325.593 14.9 325.413 14.684 325.161 14.624ZM322.797 16.004H324.201V18.404C323.877 18.92 323.385 19.316 322.797 19.508V16.004ZM331.007 16.004V14.6H327.359C327.047 14.6 326.807 14.852 326.807 15.164V22.448C326.807 22.76 327.047 23 327.359 23H330.995V21.608H328.199V19.508H330.995V18.104H328.199V16.004H331.007ZM336.397 16.004V14.6H332.761C332.449 14.6 332.209 14.852 332.209 15.164V18.944C332.209 19.244 332.449 19.496 332.761 19.496H335.005V21.608H332.209V23H335.845C336.157 23 336.397 22.76 336.397 22.448V18.656C336.397 18.356 336.157 18.104 335.845 18.104H333.601V16.004H336.397ZM341.812 16.004V14.6H338.164C337.852 14.6 337.612 14.852 337.612 15.164V22.448C337.612 22.76 337.852 23 338.164 23H341.8V21.608H339.004V19.508H341.8V18.104H339.004V16.004H341.812ZM346.77 14.624C346.734 14.612 346.686 14.6 346.65 14.6H343.014V23.012H344.406V20.96C344.838 20.876 345.234 20.708 345.606 20.504L345.81 20.888V23.012H347.214V20.888L346.578 19.7C346.83 19.412 347.046 19.1 347.214 18.764V15.164C347.202 14.9 347.022 14.684 346.77 14.624ZM344.406 16.004H345.81V18.404C345.486 18.92 344.994 19.316 344.406 19.508V16.004ZM351.212 14.6L350.516 18.812L349.808 14.6H348.416L349.736 22.544C349.772 22.808 350.012 23 350.288 23H351.212L352.616 14.6H351.212ZM358.019 16.004V14.6H354.371C354.059 14.6 353.819 14.852 353.819 15.164V22.448C353.819 22.76 354.059 23 354.371 23H358.007V21.608H355.211V19.508H358.007V18.104H355.211V16.004H358.019ZM359.221 14.6V23H362.857C363.169 23 363.409 22.76 363.409 22.448V15.164C363.409 14.852 363.169 14.6 362.857 14.6H359.221ZM362.017 21.608H360.613V16.004H362.017V21.608ZM364.623 21.608V23H365.463C365.763 23 366.015 22.76 366.015 22.448V21.608H364.623Z" fill="#ECECEC"/>
</svg>
