<svg width="58" height="51" viewBox="0 0 58 51" fill="none" xmlns="http://www.w3.org/2000/svg">
<rect x="11.1818" y="10.1837" width="10.1818" height="16.3265" rx="1" fill="#00C5FF"/>
<rect x="23.4" y="10.1837" width="10.1818" height="16.3265" rx="1" fill="#00C5FF"/>
<rect x="35.6182" y="10.1837" width="10.1818" height="16.3265" rx="1" fill="#00C5FF"/>
<path d="M7.61818 39.7755C8.12727 39.7755 9.14545 35.6939 8.63636 35.6939H5.07273L5.58182 5.08163H52.9273V35.6939H49.3636C48.8545 35.6939 50.5515 39.7755 50.8909 39.7755H54.9636C55.9818 39.7755 57 39.7755 57 37.7347V3.04082C57 2.02041 57 1 54.9636 1H3.03636C1 1 1 2.06639 1 3.04082V37.7347C1 39.7755 2.01818 39.7755 3.03636 39.7755H7.61818Z" fill="#00C5FF" stroke="#00C5FF"/>
<path fill-rule="evenodd" clip-rule="evenodd" d="M13.2182 43.8571C13.2182 38.8084 16.7818 29.5714 18.8182 29.5714H40.2C42.7454 29.5714 45.8 38.7551 45.8 43.8571C45.8 45.898 44.6488 51 39.1818 51C34.0006 51 32.8756 46.6222 32.3871 44.7212C32.2516 44.1939 32.1651 43.8571 32.0545 43.8571H26.9636C26.8531 43.8571 26.7666 44.1939 26.6311 44.7212C26.1425 46.6222 25.0175 51 19.8364 51C14.2364 51 13.2182 45.898 13.2182 43.8571ZM37.6545 40.7959C37.6545 41.3595 37.1987 41.8163 36.6364 41.8163C36.074 41.8163 35.6182 41.3595 35.6182 40.7959C35.6182 40.2324 36.074 39.7755 36.6364 39.7755C37.1987 39.7755 37.6545 40.2324 37.6545 40.7959ZM38.6727 39.7755C39.2351 39.7755 39.6909 39.3187 39.6909 38.7551C39.6909 38.1915 39.2351 37.7347 38.6727 37.7347C38.1104 37.7347 37.6546 38.1915 37.6546 38.7551C37.6546 39.3187 38.1104 39.7755 38.6727 39.7755ZM41.7273 40.7959C41.7273 41.3595 41.2714 41.8163 40.7091 41.8163C40.1468 41.8163 39.6909 41.3595 39.6909 40.7959C39.6909 40.2324 40.1468 39.7755 40.7091 39.7755C41.2714 39.7755 41.7273 40.2324 41.7273 40.7959ZM38.6727 43.8571C39.2351 43.8571 39.6909 43.4003 39.6909 42.8367C39.6909 42.2732 39.2351 41.8163 38.6727 41.8163C38.1104 41.8163 37.6546 42.2732 37.6546 42.8367C37.6546 43.4003 38.1104 43.8571 38.6727 43.8571ZM18.3091 37.7347H20.3454V39.7755H18.3091V37.7347ZM18.3091 39.7755V41.8163H16.2727V39.7755H18.3091ZM20.3454 41.8163V39.7755H22.3818V41.8163H20.3454ZM20.3454 41.8163V43.8571H18.3091V41.8163H20.3454Z" fill="#00C5FF"/>
</svg>
