<svg width="26" height="25" viewBox="0 0 26 25" fill="none" xmlns="http://www.w3.org/2000/svg">
<path d="M0.839844 12.48C0.839844 5.58749 6.42733 0 13.3198 0C20.2124 0 25.7998 5.58749 25.7998 12.48C25.7998 19.3725 20.2124 24.96 13.3198 24.96C6.42733 24.96 0.839844 19.3725 0.839844 12.48Z" fill="white"/>
<path d="M13.3198 9.16312C14.3353 9.16312 15.0203 9.60176 15.4109 9.96831L16.9372 8.4781C15.9998 7.60681 14.78 7.07202 13.3198 7.07202C11.2047 7.07202 9.37799 8.28582 8.48868 10.0524L10.2373 11.4104C10.6759 10.1065 11.8897 9.16312 13.3198 9.16312V9.16312Z" fill="#EA4335"/>
<path d="M18.5115 12.6002C18.5115 12.1555 18.4755 11.8311 18.3973 11.4946H13.3198V13.5015H16.3002C16.2401 14.0003 15.9157 14.7514 15.1946 15.2561L16.9011 16.5781C17.9226 15.6347 18.5115 14.2466 18.5115 12.6002V12.6002Z" fill="#4285F4"/>
<path d="M10.2433 13.5496C10.1291 13.2131 10.063 12.8526 10.063 12.48C10.063 12.1075 10.1291 11.7469 10.2373 11.4104L8.48869 10.0524C8.12215 10.7855 7.91183 11.6087 7.91183 12.48C7.91183 13.3513 8.12215 14.1745 8.48869 14.9076L10.2433 13.5496V13.5496Z" fill="#FBBC05"/>
<path d="M13.3198 17.888C14.78 17.888 16.0058 17.4073 16.9011 16.5781L15.1946 15.2561C14.7379 15.5746 14.125 15.7969 13.3198 15.7969C11.8897 15.7969 10.6759 14.8535 10.2433 13.5496L8.49469 14.9076C9.38401 16.6742 11.2047 17.888 13.3198 17.888V17.888Z" fill="#34A853"/>
</svg>
