<svg width="59" height="79" viewBox="0 0 59 79" fill="none" xmlns="http://www.w3.org/2000/svg">
<path d="M57.6266 62.703C55.8238 61.2349 56.5253 57.9926 54.6537 56.3928C56.4663 45.3164 51.3857 35.5533 45.3284 29.2958C40.2446 24.0456 41.8834 18.937 41.8834 14.5162C41.8834 7.45233 38.9957 0 30.2473 0C20.8958 0 18.3326 7.83417 18.2408 12.3043C18.0179 23.0417 20.4009 25.833 14.1436 33.6474C6.78172 42.841 5.69678 52.0116 7.35861 56.8767C6.58178 57.7852 5.53289 58.7925 3.57278 59.6253C-1.84211 61.9953 2.12728 65.9617 0.629333 68.7761C0.203222 69.576 0 70.412 0 71.2119C0 73.6807 1.95356 75.817 5.50339 75.4977C10.2922 75.0698 14.7107 78.4766 17.5689 78.4766C20.0928 78.4766 22.1643 77.0349 23.128 75.05C27.6415 73.9341 33.2137 74.0757 37.7239 75.2442C38.5336 77.5187 40.7297 79 43.1716 79C48.5177 79 49.5469 72.9137 55.6796 70.8531C57.8888 70.1125 59 67.9598 59 65.9551C59 64.6714 58.5444 63.4502 57.6266 62.703ZM27.6448 28.2557C26.5992 28.2557 25.7338 27.4064 24.367 26.386C22.6363 25.0957 20.8762 24.3518 20.8958 22.9956C20.8958 22.064 22.1381 21.7777 23.7442 20.754C25.4683 19.6578 26.1403 18.5452 27.8382 18.5452C29.5754 18.5452 30.0998 19.4274 32.4598 20.4511C34.7805 21.4617 36.3964 21.8567 36.3964 22.9956C36.3964 24.1641 33.9676 25.0002 32.6008 25.8528C30.5915 27.097 29.559 28.2557 27.6448 28.2557ZM33.1023 11.0896C35.9933 11.5538 36.3178 16.6558 34.9346 19.1674L33.7709 18.6901C34.3741 16.9027 34.3642 13.96 32.3451 13.7723C31.0635 13.6538 30.2375 15.3523 30.0605 16.8073C29.559 16.5966 29.0116 16.4452 28.3462 16.3892C28.5494 13.351 30.503 10.6716 33.1023 11.0896ZM21.948 12.1792C24.1638 11.6262 25.4716 14.2134 25.4814 16.9027L24.4653 17.5281C24.3277 16.3991 23.8262 14.5755 22.5675 14.9639C21.2203 15.3853 21.4399 18.5288 22.1906 19.174L21.1876 19.7335C19.8109 17.4063 19.8142 12.7124 21.948 12.1792ZM15.0155 75.5207C8.58122 72.5813 6.39494 73.2495 5.16578 73.2495C2.61895 73.2495 1.78639 71.3436 2.7435 69.5397C3.55639 68.0091 3.304 66.4061 3.10406 65.119C2.79594 63.1473 2.74022 62.5055 4.67083 61.6562C7.34222 60.5173 8.52878 59.0525 9.41378 57.9564C11.8983 54.8721 14.4058 59.724 16.461 64.046C17.7951 66.8472 20.4206 68.2659 21.2302 71.3699C21.9742 74.237 18.9029 77.2982 15.0155 75.5207ZM37.9173 69.3521C33.3809 71.5674 27.6022 72.5845 23.2788 70.3363C22.6396 68.4831 21.6169 67.285 20.5156 66.0802C22.2823 65.6128 23.5934 63.4008 22.0234 61.1789C20.3484 58.8056 16.9264 57.1499 13.4684 54.4639C10.2332 51.9524 9.21055 45.7608 13.6159 38.8417C11.4689 44.9708 12.7243 50.6193 13.8027 52.2355C14.0256 48.9833 14.2813 43.552 18.7063 37.0444C20.9384 33.7593 20.9712 29.4209 21.0204 26.7086L23.0526 28.1043C24.5473 29.2135 25.7994 30.4348 27.5956 30.4348C30.2506 30.4348 31.7191 28.9008 33.7644 27.627C34.5642 27.1332 35.7737 26.6329 36.7898 25.9383C38.4942 34.0885 45.5546 43.8911 45.9512 49.4738C47.5933 46.0768 45.4857 37.9068 45.4857 37.9068C48.2456 42.1366 48.4652 45.662 48.5865 49.9873C50.5171 50.7805 52.5887 52.8477 52.7788 55.5699L51.9757 55.4778C51.5627 52.4527 43.4306 48.009 42.6996 53.7035C38.7991 54.2993 40.2183 60.5041 39.4317 64.5265C39.0711 66.3666 38.4024 67.8215 37.9173 69.3521ZM53.8014 69.2172C50.5728 70.468 48.3931 73.1244 46.8952 74.7735C44.0107 77.9533 40.1954 76.4292 39.7889 73.4535C39.3596 70.2738 40.9689 68.5391 41.6638 64.9808C42.2964 61.7319 41.5884 56.7319 43.0766 56.1986C44.0435 61.9689 49.8484 59.543 51.1727 57.9695C53.3262 57.9695 53.5064 58.7003 53.9883 60.7247C54.2898 61.992 54.7061 63.0585 55.8828 64.3126C57.2529 65.784 56.8334 68.042 53.8014 69.2172ZM27.5792 26.4058C25.4454 26.4058 23.8491 24.9805 22.5511 23.8745C21.8857 23.3116 22.715 22.2714 23.3804 22.8376C24.6489 23.9173 25.9272 25.0595 27.5792 25.0595C29.5688 25.0595 31.3224 23.3511 33.6988 22.4097C34.5084 22.0904 34.9706 23.3478 34.1676 23.6671C31.86 24.5789 30.0081 26.4058 27.5792 26.4058Z" fill="#00C5FF"/>
</svg>
