<svg width="48" height="41" viewBox="0 0 48 41" fill="none" xmlns="http://www.w3.org/2000/svg">
<path d="M27.915 24.0278H19.912C19.8241 24.0278 19.7442 24.0852 19.7123 24.1671L12.1884 40.7048C12.1325 40.8522 12.2364 41.0079 12.3881 40.9997H35.4229C35.5746 40.9997 35.6705 40.8359 35.6226 40.6966L28.0987 24.1589C28.0748 24.0852 27.9949 24.0278 27.915 24.0278Z" fill="#ECECEC"/>
<path d="M12.2921 36.2899L18.8176 22.0538C18.8335 22.0129 18.8415 21.9637 18.8256 21.9146L9.38481 1.15026C9.32091 0.904527 8.96948 0.937291 8.96948 1.1994L11.8928 36.2079C11.8768 36.4373 12.2043 36.511 12.2921 36.2899Z" fill="#ECECEC"/>
<path d="M0.591141 13.8382L6.74919 0.0936014C6.87699 -0.0866016 7.14056 0.0116907 7.13257 0.232849L10.3753 38.2721C10.3673 38.5014 10.0559 38.5669 9.96799 38.354L0.231722 16.9098C-0.17562 15.8941 -0.0398394 14.731 0.591141 13.8382Z" fill="#E0E0E0"/>
<path d="M35.9339 36.2081L38.8572 1.19954C38.8572 0.945622 38.5058 0.904666 38.4419 1.1504L29.0011 21.9147C28.9852 21.9638 28.9932 22.013 29.0091 22.054L35.5346 36.29C35.6224 36.5112 35.9499 36.4374 35.9339 36.2081Z" fill="#ECECEC"/>
<path d="M47.5872 16.9099L37.8509 38.354C37.7631 38.5752 37.4516 38.5096 37.4436 38.2721L40.6864 0.232888C40.6784 0.0117295 40.9419 -0.0783717 41.0697 0.0936402L47.2358 13.8382C47.8668 14.731 47.9946 15.8942 47.5872 16.9099Z" fill="#E0E0E0"/>
</svg>
