<svg width="25" height="25" viewBox="0 0 25 25" fill="none" xmlns="http://www.w3.org/2000/svg">
<path d="M0 12.48C0 5.58749 5.58749 0 12.48 0C19.3725 0 24.96 5.58749 24.96 12.48C24.96 19.3725 19.3725 24.96 12.48 24.96C5.58749 24.96 0 19.3725 0 12.48Z" fill="#005FF9"/>
<path fill-rule="evenodd" clip-rule="evenodd" d="M5.20001 12.4594C5.20001 8.45654 8.46574 5.20001 12.4799 5.20001C16.4941 5.20001 19.7598 8.45654 19.7598 12.4594C19.7598 13.0264 19.7125 13.4855 19.6065 13.9462L19.6049 13.9539C19.6047 13.9553 19.5521 14.1677 19.523 14.2603C19.3431 14.8341 19.0173 15.3121 18.5809 15.6424C18.1577 15.9628 17.6329 16.1393 17.1034 16.1393C17.0379 16.1393 16.972 16.1367 16.9075 16.1315C16.1555 16.0713 15.4942 15.6767 15.0888 15.0474C14.3914 15.7466 13.4661 16.1313 12.4799 16.1313C10.4495 16.1313 8.79759 14.4841 8.79759 12.4594C8.79759 10.4347 10.4495 8.78746 12.4799 8.78746C14.5103 8.78746 16.1622 10.4347 16.1622 12.4594V13.643C16.1653 14.3337 16.6301 14.616 17.0271 14.648C17.4222 14.6783 17.9479 14.4489 18.131 13.7C18.2214 13.2892 18.2673 12.8717 18.2673 12.4594C18.2673 9.27718 15.6711 6.68832 12.4799 6.68832C9.28874 6.68832 6.69257 9.27718 6.69257 12.4594C6.69257 15.6415 9.28874 18.2304 12.4799 18.2304C13.5907 18.2304 14.6711 17.9141 15.6041 17.3155L15.6208 17.3048L16.6016 18.4418L16.5805 18.4562C15.3686 19.2822 13.9506 19.7188 12.4799 19.7188C8.46574 19.7188 5.20001 16.4622 5.20001 12.4594ZM12.4799 14.643C13.6873 14.643 14.6697 13.6634 14.6697 12.4594C14.6697 11.2553 13.6873 10.2758 12.4799 10.2758C11.2724 10.2758 10.2901 11.2553 10.2901 12.4594C10.2901 13.6634 11.2724 14.643 12.4799 14.643Z" fill="#FF9E00"/>
</svg>
