<svg width="60" height="50" viewBox="0 0 60 50" fill="none" xmlns="http://www.w3.org/2000/svg">
<path fill-rule="evenodd" clip-rule="evenodd" d="M49.0323 44.6052C48.9183 47.6575 48.8494 49.5 53.5711 49.5C58 49.5 59 46 59 43L59 10C59 8.5 58.5 6.5 55 6.5H34C34 4 34 1 30 1H4.99997C1.49997 1 0.99999 3.66667 1 5V43C0.999969 46 1.99997 49.5 6.5 49.5C11 49.5 11 47 11 43.0001V43C11 42.3333 11.6 41 14 41C16.4 41 17 42 17 43V47C17 47.6667 17 49 19 49H41C43 49 43 47.6667 43 47V43C43 42 43.4526 41 46 41C48.5473 41 49.0711 42.495 49.0711 43C49.0711 43.566 49.0511 44.102 49.0323 44.6052ZM17 18C17 18 28.5 26 30 26C31.5 26 43 18 43 18C43.5 17.5 43 17.5 41 17.5H18.5C16.5 17.5 16.6666 17.8333 17 18ZM43 34C43 35.5 42 35.5 41 35.5H19.5C18 35.5 17 35.5 17 34V29.25V24.5C20.6666 27 28.4 30.5 30 30.5C31.6 30.5 39.3333 27 43 24.5V29.25V34Z" fill="#00C5FF"/>
<path d="M49.0323 44.6052L49.5319 44.6238L49.5319 44.6238L49.0323 44.6052ZM59 43L59.5 43L59.5 43L59 43ZM59 10L58.5 10L58.5 10L59 10ZM34 6.5H33.5V7H34V6.5ZM1 5L1.5 5L1.5 5L1 5ZM1 43L1.5 43V43H1ZM11 43L11.5 43L11.5 43L11 43ZM17 18L17.2855 17.5895L17.2559 17.5689L17.2236 17.5528L17 18ZM43 18L43.2855 18.4105L43.322 18.385L43.3535 18.3536L43 18ZM17 24.5L17.2816 24.0869L16.5 23.5539V24.5H17ZM43 24.5H43.5V23.5539L42.7183 24.0869L43 24.5ZM53.5711 49C51.2312 49 50.312 48.5343 49.9049 47.9208C49.6913 47.5987 49.5755 47.1772 49.5276 46.6152C49.4794 46.05 49.5031 45.3958 49.5319 44.6238L48.5326 44.5865C48.5045 45.3407 48.4768 46.0614 48.5312 46.7001C48.5859 47.3421 48.7266 47.9535 49.0717 48.4736C49.7821 49.5444 51.1893 50 53.5711 50V49ZM58.5 43C58.5 44.46 58.2539 45.972 57.5258 47.1046C56.8213 48.2005 55.629 49 53.5711 49V50C55.9421 50 57.4642 49.0495 58.367 47.6454C59.2461 46.278 59.5 44.54 59.5 43H58.5ZM58.5 10L58.5 43L59.5 43L59.5 10L58.5 10ZM55 7C56.655 7 57.488 7.46945 57.9255 8.00412C58.3786 8.55793 58.5 9.29087 58.5 10H59.5C59.5 9.20913 59.3713 8.19207 58.6994 7.37088C58.0119 6.53055 56.8449 6 55 6V7ZM34 7H55V6H34V7ZM30 1.5C30.9394 1.5 31.5978 1.67624 32.0651 1.9423C32.5263 2.20498 32.8353 2.57441 33.0476 3.0254C33.4906 3.96678 33.5 5.21831 33.5 6.5H34.5C34.5 5.28169 34.5094 3.78322 33.9524 2.5996C33.6646 1.98809 33.2236 1.45127 32.5599 1.07332C31.9021 0.698755 31.0606 0.5 30 0.5V1.5ZM4.99997 1.5H30V0.5H4.99997V1.5ZM1.5 5C1.5 4.37973 1.61898 3.49519 2.10191 2.77973C2.56196 2.09817 3.39843 1.5 4.99997 1.5V0.5C3.10151 0.5 1.93799 1.23516 1.27306 2.22027C0.630998 3.17147 0.499995 4.28694 0.5 5L1.5 5ZM1.5 43V5H0.5V43H1.5ZM6.5 49C4.40319 49 3.19356 48.1977 2.4817 47.1025C1.74611 45.9708 1.49999 44.4601 1.5 43L0.5 43C0.499984 44.5399 0.753851 46.2792 1.64326 47.6475C2.5564 49.0523 4.09678 50 6.5 50V49ZM10.5 43.0001C10.5 44.0063 10.4996 44.8887 10.4316 45.6592C10.3636 46.4304 10.2306 47.0457 9.99029 47.5264C9.75749 47.992 9.41653 48.3468 8.8892 48.5942C8.34749 48.8484 7.58482 49 6.5 49V50C7.66518 50 8.59001 49.8392 9.31392 49.4995C10.0522 49.1532 10.555 48.633 10.8847 47.9736C11.2069 47.3293 11.3552 46.5697 11.4278 45.7471C11.5004 44.9239 11.5 43.9938 11.5 43.0001H10.5ZM10.5 43V43.0001H11.5V43H10.5ZM14 40.5C12.7059 40.5 11.8237 40.8614 11.2603 41.3831C10.7044 41.8979 10.5 42.5325 10.5 43L11.5 43C11.5 42.8008 11.5956 42.4355 11.9397 42.1169C12.2763 41.8052 12.8941 41.5 14 41.5V40.5ZM17.5 43C17.5 42.3965 17.3146 41.7363 16.7201 41.2409C16.143 40.76 15.2571 40.5 14 40.5V41.5C15.1428 41.5 15.7569 41.74 16.0799 42.0091C16.3854 42.2637 16.5 42.6035 16.5 43H17.5ZM17.5 47V43H16.5V47H17.5ZM19 48.5C18.1217 48.5 17.8137 48.2177 17.6787 47.9928C17.5103 47.7121 17.5 47.3518 17.5 47H16.5C16.5 47.3149 16.4896 47.9546 16.8212 48.5072C17.1862 49.1156 17.8782 49.5 19 49.5V48.5ZM41 48.5H19V49.5H41V48.5ZM42.5 47C42.5 47.3518 42.4896 47.7121 42.3212 47.9928C42.1862 48.2177 41.8782 48.5 41 48.5V49.5C42.1217 49.5 42.8137 49.1156 43.1787 48.5072C43.5103 47.9546 43.5 47.3149 43.5 47H42.5ZM42.5 43V47H43.5V43H42.5ZM46 40.5C44.6785 40.5 43.7823 40.7562 43.2168 41.2476C42.631 41.7566 42.5 42.4278 42.5 43H43.5C43.5 42.5722 43.5953 42.2434 43.8727 42.0024C44.1703 41.7438 44.7741 41.5 46 41.5V40.5ZM49.5711 43C49.5711 42.6133 49.3862 41.9838 48.8393 41.4521C48.2784 40.9068 47.376 40.5 46 40.5V41.5C47.1713 41.5 47.8045 41.8407 48.1423 42.1691C48.4941 42.5112 48.5711 42.8816 48.5711 43H49.5711ZM49.5319 44.6238C49.5507 44.1217 49.5711 43.5767 49.5711 43H48.5711C48.5711 43.5553 48.5515 44.0823 48.5326 44.5865L49.5319 44.6238ZM30 25.5C30.0043 25.5 29.9878 25.5001 29.9429 25.4898C29.9004 25.48 29.844 25.4636 29.7726 25.4385C29.6293 25.3881 29.4467 25.3104 29.2262 25.2051C28.786 24.9948 28.2271 24.6901 27.5874 24.3178C26.3095 23.5743 24.7398 22.5799 23.2109 21.5814C21.6832 20.5837 20.2017 19.5856 19.1017 18.8367C18.5518 18.4623 18.0975 18.1504 17.7808 17.9321C17.6224 17.8229 17.4985 17.7372 17.4142 17.6788C17.372 17.6496 17.3398 17.6273 17.3181 17.6122C17.3073 17.6047 17.2991 17.599 17.2936 17.5952C17.2909 17.5933 17.2889 17.5919 17.2875 17.5909C17.2868 17.5905 17.2863 17.5901 17.286 17.5899C17.2858 17.5898 17.2857 17.5897 17.2856 17.5896C17.2855 17.5896 17.2855 17.5895 17 18C16.7144 18.4105 16.7145 18.4105 16.7146 18.4106C16.7147 18.4106 16.7148 18.4107 16.715 18.4109C16.7154 18.4111 16.7159 18.4115 16.7166 18.412C16.7181 18.413 16.7202 18.4144 16.723 18.4164C16.7286 18.4203 16.7369 18.4261 16.7479 18.4337C16.7698 18.4489 16.8023 18.4715 16.8448 18.5009C16.9297 18.5597 17.0543 18.6458 17.2133 18.7554C17.5313 18.9746 17.9872 19.2877 18.5389 19.6633C19.642 20.4144 21.1292 21.4163 22.6641 22.4186C24.1976 23.4201 25.7842 24.4257 27.0845 25.1822C27.7337 25.5599 28.3194 25.8802 28.7952 26.1074C29.0328 26.2209 29.251 26.315 29.4409 26.3818C29.6182 26.4442 29.8175 26.5 30 26.5V25.5ZM43 18C42.7144 17.5895 42.7144 17.5896 42.7143 17.5896C42.7142 17.5897 42.7141 17.5898 42.714 17.5899C42.7136 17.5901 42.7131 17.5905 42.7124 17.5909C42.7111 17.5919 42.709 17.5933 42.7063 17.5952C42.7008 17.599 42.6926 17.6047 42.6818 17.6122C42.6601 17.6273 42.6279 17.6496 42.5858 17.6788C42.5015 17.7372 42.3775 17.8229 42.2192 17.9321C41.9024 18.1504 41.4481 18.4623 40.8983 18.8367C39.7983 19.5856 38.3167 20.5837 36.7891 21.5814C35.2601 22.5799 33.6905 23.5743 32.4126 24.3178C31.7728 24.6901 31.2139 24.9948 30.7737 25.2051C30.5533 25.3104 30.3706 25.3881 30.2273 25.4385C30.1559 25.4636 30.0996 25.48 30.0571 25.4898C30.0122 25.5001 29.9957 25.5 30 25.5V26.5C30.1824 26.5 30.3817 26.4442 30.559 26.3818C30.749 26.315 30.9672 26.2209 31.2047 26.1074C31.6806 25.8802 32.2662 25.5599 32.9155 25.1822C34.2157 24.4257 35.8023 23.4201 37.3359 22.4186C38.8707 21.4163 40.3579 20.4144 41.4611 19.6633C42.0127 19.2877 42.4686 18.9746 42.7866 18.7554C42.9457 18.6458 43.0703 18.5597 43.1552 18.5009C43.1976 18.4715 43.2301 18.4489 43.2521 18.4337C43.263 18.4261 43.2714 18.4203 43.277 18.4164C43.2798 18.4144 43.2819 18.413 43.2833 18.412C43.284 18.4115 43.2846 18.4111 43.2849 18.4109C43.2851 18.4107 43.2853 18.4106 43.2853 18.4106C43.2854 18.4105 43.2855 18.4105 43 18ZM41 18C41.5023 18 41.9015 18 42.2143 18.0077C42.5355 18.0155 42.7304 18.031 42.8394 18.0528C42.8965 18.0642 42.8879 18.0697 42.8539 18.049C42.8073 18.0206 42.701 17.931 42.6827 17.7662C42.6751 17.6978 42.687 17.6442 42.697 17.6135C42.7067 17.5837 42.717 17.5678 42.7171 17.5676C42.7176 17.5668 42.7134 17.5734 42.7007 17.5884C42.6883 17.603 42.6707 17.6222 42.6464 17.6464L43.3535 18.3536C43.4265 18.2806 43.5031 18.1957 43.5622 18.1023C43.6158 18.0175 43.699 17.8576 43.6766 17.6557C43.6505 17.4205 43.5012 17.2724 43.3745 17.1952C43.2605 17.1256 43.1346 17.092 43.0355 17.0722C42.832 17.0315 42.5582 17.0158 42.2387 17.008C41.9109 17 41.4976 17 41 17V18ZM18.5 18H41V17H18.5V18ZM17.2236 17.5528C17.1548 17.5184 17.1997 17.5215 17.2466 17.6035C17.2818 17.6651 17.3218 17.7849 17.2756 17.925C17.2345 18.0498 17.1526 18.1036 17.14 18.1115C17.1259 18.1203 17.1893 18.083 17.4394 18.0505C17.6702 18.0205 18.0112 18 18.5 18V17C17.9888 17 17.6006 17.0212 17.3105 17.0589C17.0398 17.0941 16.7907 17.1505 16.61 17.2635C16.514 17.3235 16.3852 17.432 16.3259 17.6121C16.2615 17.8075 16.3119 17.9834 16.3783 18.0996C16.4877 18.291 16.6784 18.3982 16.7764 18.4472L17.2236 17.5528ZM41 36C41.462 36 42.096 36.011 42.5986 35.7597C42.8728 35.6226 43.1101 35.4096 43.272 35.0973C43.4292 34.794 43.5 34.4271 43.5 34H42.5C42.5 34.3229 42.4457 34.5185 42.3842 34.637C42.3274 34.7467 42.2522 34.8149 42.1514 34.8653C41.9039 34.989 41.5379 35 41 35V36ZM19.5 36H41V35H19.5V36ZM16.5 34C16.5 34.4257 16.5702 34.7997 16.7426 35.11C16.9211 35.4314 17.1852 35.6412 17.4905 35.7721C17.7831 35.8975 18.1119 35.95 18.4382 35.9751C18.7659 36.0003 19.1303 36 19.5 36V35C19.1197 35 18.7966 34.9997 18.5149 34.978C18.2317 34.9563 18.0294 34.915 17.8844 34.8529C17.7522 34.7963 17.6726 34.7248 17.6167 34.6244C17.5547 34.5128 17.5 34.3243 17.5 34H16.5ZM16.5 29.25V34H17.5V29.25H16.5ZM16.5 24.5V29.25H17.5V24.5H16.5ZM30 30C29.8698 30 29.6275 29.9607 29.263 29.8621C28.9097 29.7665 28.4765 29.6251 27.9806 29.4443C26.9895 29.083 25.7711 28.573 24.4832 27.9829C21.9027 26.8005 19.0815 25.314 17.2816 24.0869L16.7183 24.9131C18.5851 26.186 21.4639 27.6995 24.0667 28.8921C25.3705 29.4895 26.6146 30.0107 27.6381 30.3838C28.1495 30.5702 28.6116 30.7218 29.0018 30.8274C29.3807 30.9299 29.7301 31 30 31V30ZM42.7183 24.0869C40.9185 25.314 38.0973 26.8005 35.5167 27.9829C34.2288 28.573 33.0104 29.083 32.0194 29.4443C31.5234 29.6251 31.0902 29.7665 30.737 29.8621C30.3724 29.9607 30.1301 30 30 30V31C30.2698 31 30.6192 30.9299 30.9981 30.8274C31.3884 30.7218 31.8504 30.5702 32.3618 30.3838C33.3853 30.0107 34.6294 29.4895 35.9332 28.8921C38.536 27.6995 41.4148 26.186 43.2816 24.9131L42.7183 24.0869ZM43.5 29.25V24.5H42.5V29.25H43.5ZM43.5 34V29.25H42.5V34H43.5Z" fill="#00C5FF"/>
</svg>
