<svg width="37" height="29" viewBox="0 0 37 29" fill="none" xmlns="http://www.w3.org/2000/svg">
<path d="M31.3425 2.42874C28.9474 1.29412 26.3865 0.469531 23.7091 0C23.3803 0.601922 22.9962 1.41152 22.7313 2.05555C19.8852 1.62217 17.0652 1.62217 14.2715 2.05555C14.0066 1.41152 13.6138 0.601922 13.282 0C10.6017 0.469531 8.03787 1.29715 5.6428 2.43475C0.811907 9.82621 -0.497667 17.0341 0.157122 24.1396C3.36122 26.5623 6.46638 28.034 9.51914 28.997C10.2729 27.9467 10.9451 26.8301 11.5242 25.6534C10.4213 25.2291 9.3649 24.7054 8.36674 24.0975C8.63155 23.8988 8.89057 23.6912 9.14082 23.4775C15.2289 26.3607 21.8437 26.3607 27.8591 23.4775C28.1122 23.6912 28.3712 23.8988 28.6331 24.0975C27.632 24.7084 26.5728 25.232 25.4698 25.6564C26.0489 26.8301 26.7183 27.9497 27.4749 29C30.5306 28.037 33.6386 26.5653 36.8427 24.1396C37.611 15.9025 35.5303 8.76081 31.3425 2.42874ZM12.3536 19.7698C10.5261 19.7698 9.02731 18.0423 9.02731 15.9386C9.02731 13.8349 10.4941 12.1044 12.3536 12.1044C14.2133 12.1044 15.712 13.8319 15.68 15.9386C15.6829 18.0423 14.2133 19.7698 12.3536 19.7698ZM24.6462 19.7698C22.8187 19.7698 21.3199 18.0423 21.3199 15.9386C21.3199 13.8349 22.7866 12.1044 24.6462 12.1044C26.5058 12.1044 28.0046 13.8319 27.9726 15.9386C27.9726 18.0423 26.5058 19.7698 24.6462 19.7698Z" fill="white"/>
</svg>
