<svg width="24" height="24" viewBox="0 0 24 24" fill="none" xmlns="http://www.w3.org/2000/svg">
<path fill-rule="evenodd" clip-rule="evenodd" d="M24 12C24 5.37258 18.6274 0 12 0V0C5.37258 0 0 5.37258 0 12V12C0 18.6274 5.37258 24 12 24V24C18.6274 24 24 18.6274 24 12V12ZM13.3592 16.7797V16.7797C13.1134 17.0413 12.6933 16.9902 12.3343 16.9902H12.1831C11.9337 16.9902 11.6849 16.9992 11.4363 16.9808C10.693 16.9255 8.96227 16.6157 7.39259 14.997C5.55148 13.0976 3.88618 9.67255 3.33625 8.47776C3.20605 8.19489 2.95249 7.84088 3.15472 7.6041V7.6041C3.21137 7.53752 3.30753 7.49615 3.40203 7.47048C3.58146 7.42175 3.77024 7.42834 3.95616 7.42714L5.77528 7.41542C6.07205 7.4135 6.39249 7.40162 6.63228 7.57649V7.57649V7.57649C6.83341 7.72318 6.89893 7.98783 6.99846 8.216C7.1645 8.59662 7.4592 9.23589 7.80889 9.83457C8.87228 11.6543 9.36695 12.0521 9.72751 11.8571C9.98113 11.7202 10.0758 11.1174 10.1059 10.5298C10.1483 9.70085 10.3254 8.75159 9.83115 8.0847V8.0847C9.61865 7.79824 9.21803 7.71454 9.04123 7.69124C8.89753 7.67226 9.13268 7.34265 9.4375 7.19511C9.8956 6.97335 10.7038 6.96041 11.6592 6.9699C12.4038 6.97767 12.6181 7.0234 12.909 7.09329C13.5841 7.25469 13.563 7.77195 13.5175 8.88832C13.5039 9.22219 13.4881 9.60964 13.4881 10.0572C13.4881 10.1578 13.4852 10.265 13.4821 10.3752C13.4663 10.9472 13.4483 11.6021 13.8286 11.8459C14.0237 11.9701 14.5001 11.864 15.6924 9.85873C16.0622 9.23662 16.3712 8.54324 16.5407 8.13813C16.6372 7.90759 16.703 7.63343 16.9178 7.50573V7.50573V7.50573C17.1221 7.38476 17.3827 7.4446 17.6201 7.44315L18.9097 7.43525C19.5965 7.43105 20.6427 7.04756 20.8752 7.69383V7.69383C21.0119 8.0709 20.5748 8.95273 19.4809 10.3971C18.4427 11.7683 17.9378 12.2728 17.9847 12.7192C18.019 13.045 18.3472 13.34 18.9766 13.9184C20.2915 15.1279 20.644 15.7643 20.7286 15.9172C20.7357 15.9298 20.7408 15.9392 20.7446 15.9453C21.0686 16.4778 20.839 16.7406 20.5663 16.8693C20.2689 17.0097 19.926 16.9925 19.5972 16.997L18.9732 17.0056C18.1342 17.0172 17.2232 17.1377 16.5294 16.6658V16.6658C16.1772 16.4264 15.833 16.0355 15.5052 15.6631C15.0046 15.0945 14.5421 14.5692 14.1474 14.6933C13.6195 14.8596 13.5248 15.7908 13.5081 16.1628C13.5035 16.2655 13.5082 16.3683 13.4916 16.4698C13.4754 16.5687 13.4393 16.6943 13.3592 16.7797Z" fill="white"/>
</svg>
