<svg width="26" height="25" viewBox="0 0 26 25" fill="none" xmlns="http://www.w3.org/2000/svg">
<path d="M0.919922 12.48C0.919922 5.58749 6.50741 0 13.3999 0C20.2924 0 25.8799 5.58749 25.8799 12.48C25.8799 19.3725 20.2924 24.96 13.3999 24.96C6.50741 24.96 0.919922 19.3725 0.919922 12.48Z" fill="#F68634"/>
<path d="M14.7498 15.309L16.6149 17.1095C16.997 17.4775 16.997 18.0753 16.6149 18.4437C16.2332 18.8121 15.6146 18.8121 15.2333 18.4437L13.3996 16.6744L11.5674 18.4437C11.3764 18.6277 11.1261 18.7198 10.8758 18.7198C10.6258 18.7198 10.3759 18.6277 10.1849 18.4437C9.80318 18.0753 9.80318 17.4779 10.1845 17.1095L12.0497 15.309C11.3706 15.1596 10.7157 14.8999 10.1124 14.5345C9.65586 14.2567 9.51872 13.6746 9.80638 13.2335C10.0932 12.7918 10.6965 12.6589 11.1538 12.9367C12.5196 13.7661 14.2791 13.7663 15.6457 12.9367C16.1031 12.6589 16.7061 12.7918 16.9936 13.2335C17.2812 13.6742 17.1437 14.2567 16.6871 14.5345C16.0839 14.9003 15.4289 15.1596 14.7498 15.309Z" fill="white"/>
<path fill-rule="evenodd" clip-rule="evenodd" d="M10.0552 9.46065C10.0552 11.2361 11.5515 12.6804 13.3915 12.6804C15.2318 12.6804 16.7277 11.2361 16.7277 9.46065C16.7277 7.68461 15.2318 6.23999 13.3915 6.23999C11.5515 6.23999 10.0552 7.68461 10.0552 9.46065ZM14.7728 9.46065C14.7728 8.72534 14.1532 8.12741 13.3915 8.12741C12.6303 8.12741 12.0101 8.72534 12.0101 9.46065C12.0101 10.1954 12.6303 10.7937 13.3915 10.7937C14.1532 10.7937 14.7728 10.1954 14.7728 9.46065Z" fill="white"/>
</svg>
