<svg width="50" height="50" viewBox="0 0 50 50" fill="none" xmlns="http://www.w3.org/2000/svg">
<path fill-rule="evenodd" clip-rule="evenodd" d="M30.9999 6C30.9999 9.31371 28.3136 12 24.9999 12C21.6862 12 18.9999 9.31371 18.9999 6C18.9999 2.68629 21.6862 0 24.9999 0C28.3136 0 30.9999 2.68629 30.9999 6ZM23 29V17C23 17 3.05176e-05 26 3.05176e-05 27L0 28.8722L3.05176e-05 31C0.00012207 32 20.7716 41 25 41C29.2285 41 50 32 50 31V27C50 26 27 17 27 17V29C27 29.3333 26.6 30 25 30C23.4 30 23 29.3333 23 29ZM3.05176e-05 39.5L0 36.3512L3.05176e-05 35C0 36 21.0001 44.5 25 44.5C27.2774 44.5 35.0659 41.0961 41.3516 38.3491C46.1056 36.2714 50 34.5694 50 35V39.5C50 41 28.9998 49.5 24.9999 49.5C21 49.5 9.15527e-05 41 3.05176e-05 39.5ZM9.49988 31C11.9852 31 13.9999 29.8807 13.9999 28.5C13.9999 27.1193 11.9852 26 9.49988 26C7.01459 26 4.99988 27.1193 4.99988 28.5C4.99988 29.8807 7.01459 31 9.49988 31Z" fill="#00C5FF"/>
</svg>
