<svg width="31" height="31" viewBox="0 0 31 31" fill="none" xmlns="http://www.w3.org/2000/svg">
<path fill-rule="evenodd" clip-rule="evenodd" d="M31 0H0V31H31V0ZM17.2557 21.6737C17.0431 21.9 16.628 21.9457 16.628 21.9457H15.2533C15.2533 21.9457 12.2205 22.1262 9.54877 19.3711C6.63519 16.3653 4.06248 10.4015 4.06248 10.4015C4.06248 10.4015 3.91399 10.0103 4.07485 9.82196C4.25596 9.60909 4.74981 9.59571 4.74981 9.59571L8.03573 9.57454C8.03573 9.57454 8.34509 9.62469 8.5667 9.78629C8.75006 9.92004 8.85243 10.1686 8.85243 10.1686C8.85243 10.1686 9.3834 11.4993 10.0865 12.703C11.46 15.0535 12.099 15.5673 12.5647 15.3154C13.2442 14.9487 13.0406 11.993 13.0406 11.993C13.0406 11.993 13.0529 10.9209 12.6986 10.4427C12.4241 10.0727 11.9066 9.96462 11.6783 9.93452C11.4926 9.91 11.7964 9.48426 12.1901 9.29368C12.7818 9.00725 13.8258 8.99053 15.0598 9.00279C16.0216 9.01282 16.2983 9.07189 16.6741 9.16216C17.5461 9.37064 17.5189 10.0388 17.4601 11.4807C17.4425 11.912 17.4222 12.4124 17.4222 12.9905C17.4222 13.1204 17.4183 13.2589 17.4144 13.4014C17.394 14.1401 17.3707 14.986 17.862 15.3009C18.114 15.4614 18.7293 15.3243 20.2694 12.7342C20.9994 11.506 21.5462 10.0627 21.5462 10.0627C21.5462 10.0627 21.6665 9.80524 21.8521 9.6949C22.0422 9.58234 22.2987 9.61689 22.2987 9.61689L25.7568 9.59571C25.7568 9.59571 26.7962 9.472 26.9638 9.93787C27.1404 10.4249 26.5757 11.5639 25.1628 13.4296C23.8219 15.2008 23.1697 15.8523 23.2303 16.429C23.2745 16.8498 23.6984 17.2308 24.5115 17.978C26.2099 19.5403 26.6651 20.3622 26.7745 20.5597C26.7836 20.576 26.7903 20.5881 26.7951 20.596C27.5567 21.8476 25.9503 21.9457 25.9503 21.9457L22.8781 21.988C22.8781 21.988 22.2189 22.1173 21.3504 21.5266C20.8955 21.2175 20.451 20.7125 20.0275 20.2316C19.3809 19.4971 18.7836 18.8185 18.2737 18.9788C17.4177 19.2485 17.4435 21.0752 17.4435 21.0752C17.4435 21.0752 17.4503 21.4664 17.2557 21.6737Z" fill="white"/>
</svg>
