<svg width="26" height="26" viewBox="0 0 26 26" fill="none" xmlns="http://www.w3.org/2000/svg">
<path d="M13.44 25.92C20.3325 25.92 25.92 20.3325 25.92 13.44C25.92 6.54745 20.3325 0.959961 13.44 0.959961C6.54745 0.959961 0.959961 6.54745 0.959961 13.44C0.959961 20.3325 6.54745 25.92 13.44 25.92Z" fill="#F1F1F1"/>
<path fill-rule="evenodd" clip-rule="evenodd" d="M6.39548 9.38857L7.37216 6.784H20.7174V15.9005L16.8109 19.8056H13.8816L11.9293 21.76H9.97499V19.8056H6.39548V9.38857ZM19.4157 8.08546H8.67338V17.5273H11.6047V19.479L13.5565 17.5273H17.1365L19.4157 15.248V8.08546Z" fill="#6441A5"/>
<path fill-rule="evenodd" clip-rule="evenodd" d="M13.5564 14.5977H12.2543V10.6914H13.5564V14.5977ZM17.1365 14.5977H15.8346V10.6914H17.1365V14.5977Z" fill="#6441A5"/>
</svg>
