<svg width="26" height="26" viewBox="0 0 26 26" fill="none" xmlns="http://www.w3.org/2000/svg">
<path d="M0.919922 13.44C0.919922 6.54745 6.50741 0.959961 13.3999 0.959961C20.2924 0.959961 25.8799 6.54745 25.8799 13.44C25.8799 20.3325 20.2924 25.92 13.3999 25.92C6.50741 25.92 0.919922 20.3325 0.919922 13.44Z" fill="#55ACEE"/>
<path d="M13.0261 11.1038L13.0523 11.5357L12.6159 11.4828C11.0271 11.2801 9.63909 10.5927 8.46061 9.43818L7.88446 8.86534L7.73606 9.28836C7.4218 10.2314 7.62258 11.2272 8.27729 11.897C8.62647 12.2672 8.5479 12.32 7.94557 12.0997C7.73606 12.0292 7.55274 11.9763 7.53528 12.0028C7.47417 12.0645 7.68368 12.8664 7.84954 13.1837C8.07651 13.6244 8.53917 14.0562 9.04548 14.3118L9.47323 14.5145L8.96692 14.5233C8.47807 14.5233 8.46061 14.5321 8.51298 14.7172C8.68757 15.29 9.37721 15.8981 10.1454 16.1625L10.6866 16.3476L10.2152 16.6296C9.51688 17.035 8.6963 17.2641 7.87573 17.2817C7.4829 17.2906 7.15991 17.3258 7.15991 17.3522C7.15991 17.4404 8.22491 17.9339 8.84471 18.1278C10.7041 18.7006 12.9127 18.4539 14.5713 17.4756C15.7497 16.7794 16.9282 15.3958 17.4782 14.0562C17.775 13.3423 18.0718 12.038 18.0718 11.4123C18.0718 11.0069 18.098 10.954 18.5868 10.4693C18.8749 10.1873 19.1455 9.87883 19.1979 9.7907C19.2852 9.62326 19.2765 9.62326 18.8313 9.77308C18.0892 10.0375 17.9845 10.0022 18.3511 9.60563C18.6217 9.32361 18.9447 8.81246 18.9447 8.66264C18.9447 8.6362 18.8138 8.68027 18.6654 8.75958C18.5083 8.84771 18.1591 8.97991 17.8972 9.05923L17.4258 9.20905L16.9981 8.91822C16.7624 8.75958 16.4306 8.58332 16.2561 8.53045C15.8108 8.40706 15.1299 8.42469 14.7284 8.5657C13.6372 8.96228 12.9476 9.98459 13.0261 11.1038Z" fill="white"/>
</svg>
