<svg width="26" height="25" viewBox="0 0 26 25" fill="none" xmlns="http://www.w3.org/2000/svg">
<path d="M0.959961 12.48C0.959961 5.58749 6.54745 0 13.44 0C20.3325 0 25.92 5.58749 25.92 12.48C25.92 19.3725 20.3325 24.96 13.44 24.96C6.54745 24.96 0.959961 19.3725 0.959961 12.48Z" fill="#4C6C91"/>
<path d="M14.0928 16.5755C14.0928 16.5755 14.3331 16.5493 14.4561 16.4196C14.5688 16.3007 14.5648 16.0764 14.5648 16.0764C14.5648 16.0764 14.5499 15.0289 15.0454 14.8742C15.5337 14.7221 16.1607 15.8872 16.8261 16.3352C17.3287 16.674 17.7103 16.5998 17.7103 16.5998L19.4884 16.5755C19.4884 16.5755 20.4182 16.5193 19.9774 15.8016C19.9409 15.7428 19.7202 15.2705 18.6556 14.3003C17.5403 13.2848 17.6901 13.449 19.0326 11.6921C19.8504 10.6222 20.1772 9.96908 20.075 9.68979C19.978 9.42264 19.3764 9.49358 19.3764 9.49358L17.375 9.50573C17.375 9.50573 17.2265 9.48591 17.1165 9.55046C17.009 9.61373 16.9394 9.76137 16.9394 9.76137C16.9394 9.76137 16.6229 10.589 16.2004 11.2933C15.309 12.7786 14.9529 12.8572 14.8071 12.7652C14.4678 12.5498 14.5525 11.9011 14.5525 11.4403C14.5525 10.0004 14.7751 9.40027 14.1195 9.24497C13.902 9.1932 13.7419 9.15933 13.1852 9.15358C12.4709 9.14655 11.8667 9.15613 11.5243 9.32038C11.2964 9.42967 11.1206 9.67381 11.228 9.68787C11.3602 9.70513 11.6597 9.76712 11.8185 9.9793C12.0236 10.2535 12.0165 10.8683 12.0165 10.8683C12.0165 10.8683 12.1343 12.5632 11.7411 12.7735C11.4715 12.9179 11.1017 12.6233 10.3067 11.2754C9.89978 10.5852 9.59247 9.82208 9.59247 9.82208C9.59247 9.82208 9.53322 9.67956 9.42709 9.60287C9.29883 9.5102 9.11978 9.48144 9.11978 9.48144L7.21794 9.49358C7.21794 9.49358 6.93211 9.50125 6.82729 9.62332C6.73418 9.73133 6.82013 9.95566 6.82013 9.95566C6.82013 9.95566 8.30917 13.3755 9.99549 15.0992C11.5418 16.6791 13.2972 16.5755 13.2972 16.5755H14.0928Z" fill="white"/>
</svg>
