<svg width="66" height="67" viewBox="0 0 66 67" fill="none" xmlns="http://www.w3.org/2000/svg">
<path fill-rule="evenodd" clip-rule="evenodd" d="M65 1L31 5.78125V30H65V1ZM65 36H31V60.7188L65 65.5V36ZM25 30V6.625L1 10V30H25ZM1 36H25V59.875L1 56.5V36Z" fill="#00C5FF"/>
<path d="M31 5.78125L30.9304 5.28612L30.5 5.34664V5.78125H31ZM65 1H65.5V0.424768L64.9304 0.504872L65 1ZM31 30H30.5V30.5H31V30ZM65 30V30.5H65.5V30H65ZM65 36H65.5V35.5H65V36ZM31 36V35.5H30.5V36H31ZM31 60.7188H30.5V61.1534L30.9304 61.2139L31 60.7188ZM65 65.5L64.9304 65.9951L65.5 66.0752V65.5H65ZM25 30V30.5H25.5V30H25ZM25 6.625H25.5V6.04977L24.9304 6.12987L25 6.625ZM1 10L0.930373 9.50487L0.5 9.56539V10H1ZM1 30H0.5V30.5H1V30ZM25 36H25.5V35.5H25V36ZM1 36V35.5H0.5V36H1ZM25 59.875L24.9304 60.3701L25.5 60.4502V59.875H25ZM1 56.5H0.5V56.9346L0.930373 56.9951L1 56.5ZM31.0696 6.27638L65.0696 1.49513L64.9304 0.504872L30.9304 5.28612L31.0696 6.27638ZM31.5 30V5.78125H30.5V30H31.5ZM31 30.5H65V29.5H31V30.5ZM64.5 1V30H65.5V1H64.5ZM65 35.5H31V36.5H65V35.5ZM31.5 60.7188V36H30.5V60.7188H31.5ZM65.0696 65.0049L31.0696 60.2236L30.9304 61.2139L64.9304 65.9951L65.0696 65.0049ZM64.5 36V65.5H65.5V36H64.5ZM25.5 30V6.625H24.5V30H25.5ZM24.9304 6.12987L0.930373 9.50487L1.06963 10.4951L25.0696 7.12013L24.9304 6.12987ZM0.5 10V30H1.5V10H0.5ZM1 30.5H25V29.5H1V30.5ZM25 35.5H1V36.5H25V35.5ZM25.5 59.875V36H24.5V59.875H25.5ZM0.930373 56.9951L24.9304 60.3701L25.0696 59.3799L1.06963 56.0049L0.930373 56.9951ZM0.5 36V56.5H1.5V36H0.5Z" fill="#00C5FF"/>
</svg>
