<svg width="38" height="27" viewBox="0 0 38 27" fill="none" xmlns="http://www.w3.org/2000/svg">
<path fill-rule="evenodd" clip-rule="evenodd" d="M6 1C3.23858 1 1 3.23858 1 6V21C1 23.7614 3.23858 26 6 26H32C34.7614 26 37 23.7614 37 21V6C37 3.23858 34.7614 1 32 1H6ZM24 13.5L14.5 8V19L24 13.5Z" fill="white"/>
<path d="M14.5 8L14.6253 7.78364L14.25 7.56639V8H14.5ZM24 13.5L24.1253 13.7164L24.499 13.5L24.1253 13.2836L24 13.5ZM14.5 19H14.25V19.4336L14.6253 19.2164L14.5 19ZM1.25 6C1.25 3.37665 3.37665 1.25 6 1.25V0.75C3.10051 0.75 0.75 3.1005 0.75 6H1.25ZM1.25 21V6H0.75V21H1.25ZM6 25.75C3.37665 25.75 1.25 23.6234 1.25 21H0.75C0.75 23.8995 3.10051 26.25 6 26.25V25.75ZM32 25.75H6V26.25H32V25.75ZM36.75 21C36.75 23.6234 34.6234 25.75 32 25.75V26.25C34.8995 26.25 37.25 23.8995 37.25 21H36.75ZM36.75 6V21H37.25V6H36.75ZM32 1.25C34.6234 1.25 36.75 3.37665 36.75 6H37.25C37.25 3.10051 34.8995 0.75 32 0.75V1.25ZM6 1.25H32V0.75H6V1.25ZM14.3747 8.21636L23.8747 13.7164L24.1253 13.2836L14.6253 7.78364L14.3747 8.21636ZM14.75 19V8H14.25V19H14.75ZM23.8747 13.2836L14.3747 18.7836L14.6253 19.2164L24.1253 13.7164L23.8747 13.2836Z" fill="white"/>
</svg>
